{
  "accessors": [
    {
      "bufferView": 0,
      "componentType": 5126,
      "count": 439,
      "type": "VEC2"
    },
    {
      "bufferView": 1,
      "componentType": 5126,
      "count": 439,
      "type": "VEC3"
    },
    {
      "bufferView": 2,
      "componentType": 5126,
      "count": 439,
      "type": "VEC4"
    },
    {
      "bufferView": 3,
      "componentType": 5126,
      "count": 439,
      "type": "VEC3",
      "max": [
        0.100000016,
        0.099999994,
        0.100000046
      ],
      "min": [
        -0.099999994,
        -0.099999994,
        -0.100000009
      ]
    },
    {
      "bufferView": 4,
      "componentType": 5123,
      "count": 2280,
      "type": "SCALAR"
    }
  ],
  "asset": {
    "generator": "glTF Tools for Unity",
    "version": "2.0"
  },
  "buffers": [
    {
      "uri": "PBRsphere.bin",
      "byteLength": 25632
    }
  ],
  "bufferViews": [
    {
      "buffer": 0,
      "byteLength": 3512
    },
    {
      "buffer": 0,
      "byteOffset": 3512,
      "byteLength": 5268
    },
    {
      "buffer": 0,
      "byteOffset": 8780,
      "byteLength": 7024
    },
    {
      "buffer": 0,
      "byteOffset": 15804,
      "byteLength": 5268
    },
    {
      "buffer": 0,
      "byteOffset": 21072,
      "byteLength": 4560
    }
  ],
  "images": [
    {
      "uri": "PBRsphere_image0.png"
    },
    {
      "uri": "PBRsphere_image1.png"
    },
    {
      "uri": "PBRsphere_image2.png"
    }
  ],
  "materials": [
    {
      "name": "M_PBRsphere",
      "pbrMetallicRoughness": {
        "baseColorFactor": [
          0.214041144,
          0.214041144,
          0.214041144,
          1.0
        ],
        "baseColorTexture": {
          "index": 0
        },
        "metallicRoughnessTexture": {
          "index": 1
        }
      },
      "normalTexture": {
        "index": 2
      }
    }
  ],
  "meshes": [
    {
      "primitives": [
        {
          "attributes": {
            "TEXCOORD_0": 0,
            "NORMAL": 1,
            "TANGENT": 2,
            "POSITION": 3
          },
          "indices": 4,
          "material": 0
        }
      ],
      "name": "Sphere"
    }
  ],
  "nodes": [
    {
      "mesh": 0,
      "translation": [
        0.0,
        0.1,
        0.0
      ],
      "name": "PBRsphere"
    }
  ],
  "scene": 0,
  "scenes": [
    {
      "nodes": [
        0
      ]
    }
  ],
  "textures": [
    {
      "source": 0
    },
    {
      "source": 1
    },
    {
      "source": 2
    }
  ]
}