{"asset":{"version":"2.0","generator":"babylon.js glTF exporter for 3ds max 2018 v1.0.4","copyright":"2017 (c) BabylonJS"},"scene":0,"scenes":[{"nodes":[0,2,5]}],"nodes":[{"children":[1],"translation":[0.0,0.0,0.0],"rotation":[0.7071068,0.0,0.0,0.7071067],"scale":[1.0,1.0,1.0],"name":"MetalAnimNode"},{"mesh":0,"translation":[0.0,0.0,0.0],"rotation":[0.0,0.0,0.0,1.0],"scale":[1.0,1.0,1.0],"name":"D20_Metal_low"},{"children":[3],"translation":[0.0,0.0,0.0],"rotation":[0.682998359,0.183066443,0.183066443,0.6829983],"scale":[1.0,1.0,1.0],"name":"BlueTiltAnimNode"},{"children":[4],"translation":[0.0,0.0,0.0],"rotation":[0.0,0.0,0.0,1.0],"scale":[1.0,1.0,1.0],"name":"BlueAnimNode"},{"mesh":1,"translation":[-7.10542736E-15,3.0,1.42108547E-14],"rotation":[0.0,0.0,0.0,1.0],"scale":[0.5,0.5,0.5],"name":"D20_Blue_low"},{"children":[6],"translation":[0.0,0.0,0.0],"rotation":[-0.122766092,-0.6963681,0.696368039,0.122766085],"scale":[1.0,1.0,1.0],"name":"GreenTiltAnimNode"},{"children":[7],"translation":[0.0,0.0,0.0],"rotation":[0.0,0.0,0.0,1.0],"scale":[1.0,1.0,1.0],"name":"GreenAnimNode"},{"mesh":2,"translation":[0.0,5.0,0.0],"rotation":[0.0,0.0,3.70074333E-16,1.0],"scale":[0.3,0.3,0.3],"name":"D20_Green_low"}],"meshes":[{"primitives":[{"attributes":{"POSITION":1,"NORMAL":2,"TEXCOORD_0":3},"indices":0,"mode":4,"material":0}],"name":"D20_Metal_low"},{"primitives":[{"attributes":{"POSITION":5,"NORMAL":6,"TEXCOORD_0":7},"indices":4,"mode":4,"material":1}],"name":"D20_Blue_low"},{"primitives":[{"attributes":{"POSITION":9,"NORMAL":10,"TEXCOORD_0":11},"indices":8,"mode":4,"material":2}],"name":"D20_Green_low"}],"accessors":[{"bufferView":0,"componentType":5123,"count":1428,"type":"SCALAR","name":"accessorIndices"},{"bufferView":1,"componentType":5126,"count":1428,"max":[0.8889288,0.9895742,0.8473805],"min":[-0.8889288,-0.9895742,-0.847380638],"type":"VEC3","name":"accessorPositions"},{"bufferView":1,"byteOffset":17136,"componentType":5126,"count":1428,"type":"VEC3","name":"accessorNormals"},{"bufferView":2,"componentType":5126,"count":1428,"type":"VEC2","name":"accessorUVs"},{"bufferView":0,"byteOffset":2856,"componentType":5123,"count":1428,"type":"SCALAR","name":"accessorIndices"},{"bufferView":1,"byteOffset":34272,"componentType":5126,"count":1428,"max":[0.8889288,0.989574432,0.8473805],"min":[-0.8889288,-0.989574432,-0.847380638],"type":"VEC3","name":"accessorPositions"},{"bufferView":1,"byteOffset":51408,"componentType":5126,"count":1428,"type":"VEC3","name":"accessorNormals"},{"bufferView":2,"byteOffset":11424,"componentType":5126,"count":1428,"type":"VEC2","name":"accessorUVs"},{"bufferView":0,"byteOffset":5712,"componentType":5123,"count":1428,"type":"SCALAR","name":"accessorIndices"},{"bufferView":1,"byteOffset":68544,"componentType":5126,"count":1428,"max":[0.8889288,0.989574432,0.8473805],"min":[-0.888928831,-0.9895725,-0.847380638],"type":"VEC3","name":"accessorPositions"},{"bufferView":1,"byteOffset":85680,"componentType":5126,"count":1428,"type":"VEC3","name":"accessorNormals"},{"bufferView":2,"byteOffset":22848,"componentType":5126,"count":1428,"type":"VEC2","name":"accessorUVs"},{"bufferView":3,"componentType":5126,"count":42,"max":[20.0],"min":[0.0],"type":"SCALAR","name":"accessorAnimationInput"},{"bufferView":4,"componentType":5126,"count":42,"type":"VEC3","name":"accessorAnimationPositions"},{"bufferView":3,"byteOffset":168,"componentType":5126,"count":77,"max":[20.0],"min":[0.0],"type":"SCALAR","name":"accessorAnimationInput"},{"bufferView":5,"componentType":5126,"count":77,"type":"VEC4","name":"accessorAnimationRotations"},{"bufferView":3,"byteOffset":476,"componentType":5126,"count":5,"max":[20.0],"min":[0.0],"type":"SCALAR","name":"accessorAnimationInput"},{"bufferView":5,"byteOffset":1232,"componentType":5126,"count":5,"type":"VEC4","name":"accessorAnimationRotations"},{"bufferView":3,"byteOffset":496,"componentType":5126,"count":70,"max":[20.0],"min":[0.0],"type":"SCALAR","name":"accessorAnimationInput"},{"bufferView":5,"byteOffset":1312,"componentType":5126,"count":70,"type":"VEC4","name":"accessorAnimationRotations"},{"bufferView":3,"byteOffset":776,"componentType":5126,"count":35,"max":[20.0],"min":[0.0],"type":"SCALAR","name":"accessorAnimationInput"},{"bufferView":5,"byteOffset":2432,"componentType":5126,"count":35,"type":"VEC4","name":"accessorAnimationRotations"},{"bufferView":3,"byteOffset":916,"componentType":5126,"count":5,"max":[20.0],"min":[0.0],"type":"SCALAR","name":"accessorAnimationInput"},{"bufferView":5,"byteOffset":2992,"componentType":5126,"count":5,"type":"VEC4","name":"accessorAnimationRotations"},{"bufferView":3,"byteOffset":936,"componentType":5126,"count":35,"max":[20.0],"min":[0.0],"type":"SCALAR","name":"accessorAnimationInput"},{"bufferView":5,"byteOffset":3072,"componentType":5126,"count":35,"type":"VEC4","name":"accessorAnimationRotations"},{"bufferView":3,"byteOffset":1076,"componentType":5126,"count":40,"max":[20.0],"min":[0.0],"type":"SCALAR","name":"accessorAnimationInput"},{"bufferView":5,"byteOffset":3632,"componentType":5126,"count":40,"type":"VEC4","name":"accessorAnimationRotations"}],"bufferViews":[{"buffer":0,"byteLength":8568,"name":"bufferViewScalar"},{"buffer":0,"byteOffset":8568,"byteLength":102816,"byteStride":12,"name":"bufferViewFloatVec3"},{"buffer":0,"byteOffset":111384,"byteLength":34272,"byteStride":8,"name":"bufferViewFloatVec2"},{"buffer":0,"byteOffset":145656,"byteLength":1236,"name":"bufferViewAnimationFloatScalar"},{"buffer":0,"byteOffset":146892,"byteLength":504,"name":"bufferViewAnimationFloatVec3"},{"buffer":0,"byteOffset":147396,"byteLength":4272,"name":"bufferViewAnimationFloatVec4"}],"buffers":[{"uri":"D20_Animation.bin","byteLength":151668}],"materials":[{"pbrMetallicRoughness":{"baseColorFactor":[1.0,1.0,1.0,1.0],"baseColorTexture":{"index":1,"texCoord":0},"metallicFactor":1.0,"roughnessFactor":1.0,"metallicRoughnessTexture":{"index":2,"texCoord":0}},"normalTexture":{"index":0,"texCoord":0},"emissiveFactor":[0.0,0.0,0.0],"alphaMode":"OPAQUE","name":"D20_MetalMat"},{"pbrMetallicRoughness":{"baseColorFactor":[1.0,1.0,1.0,1.0],"baseColorTexture":{"index":4,"texCoord":0},"metallicFactor":1.0,"roughnessFactor":1.0,"metallicRoughnessTexture":{"index":5,"texCoord":0}},"normalTexture":{"index":3,"texCoord":0},"emissiveFactor":[0.0,0.0,0.0],"alphaMode":"BLEND","name":"D20_BlueMat"},{"pbrMetallicRoughness":{"baseColorFactor":[1.0,1.0,1.0,1.0],"baseColorTexture":{"index":7,"texCoord":0},"metallicFactor":1.0,"roughnessFactor":1.0,"metallicRoughnessTexture":{"index":8,"texCoord":0}},"normalTexture":{"index":6,"texCoord":0},"emissiveFactor":[0.0,0.0,0.0],"alphaMode":"BLEND","name":"D20_GreenMat"}],"textures":[{"sampler":0,"source":0,"name":"D20_low_D20Mat_Normal.png"},{"sampler":1,"source":1,"name":"D20_MetalMat_baseColor.png"},{"sampler":2,"source":2,"name":"D20_MetalMat_metallicRoughness.jpg"},{"sampler":3,"source":3,"name":"D20_low_D20Mat_Normal.png"},{"sampler":4,"source":4,"name":"D20_BlueMat_baseColor.png"},{"sampler":5,"source":5,"name":"D20_BlueMat_metallicRoughness.jpg"},{"sampler":6,"source":6,"name":"D20_low_D20Mat_Normal.png"},{"sampler":7,"source":7,"name":"D20_GreenMat_baseColor.png"},{"sampler":8,"source":8,"name":"D20_GreenMat_metallicRoughness.jpg"}],"images":[{"uri":"D20_low_D20Mat_Normal.png"},{"uri":"D20_MetalMat_baseColor.png"},{"uri":"D20_MetalMat_metallicRoughness.jpg"},{"uri":"D20_low_D20Mat_Normal.png"},{"uri":"D20_BlueMat_baseColor.png"},{"uri":"D20_BlueMat_metallicRoughness.jpg"},{"uri":"D20_low_D20Mat_Normal.png"},{"uri":"D20_GreenMat_baseColor.png"},{"uri":"D20_GreenMat_metallicRoughness.jpg"}],"samplers":[{"magFilter":9729,"minFilter":9987,"wrapS":10497,"wrapT":10497},{"magFilter":9729,"minFilter":9987,"wrapS":10497,"wrapT":10497},{"magFilter":9729,"minFilter":9987,"wrapS":10497,"wrapT":10497},{"magFilter":9729,"minFilter":9987,"wrapS":10497,"wrapT":10497},{"magFilter":9729,"minFilter":9987,"wrapS":10497,"wrapT":10497},{"magFilter":9729,"minFilter":9987,"wrapS":10497,"wrapT":10497},{"magFilter":9729,"minFilter":9987,"wrapS":10497,"wrapT":10497},{"magFilter":9729,"minFilter":9987,"wrapS":10497,"wrapT":10497},{"magFilter":9729,"minFilter":9987,"wrapS":10497,"wrapT":10497}],"animations":[{"channels":[{"sampler":0,"target":{"node":0,"path":"translation"}},{"sampler":1,"target":{"node":0,"path":"rotation"}},{"sampler":2,"target":{"node":2,"path":"rotation"}},{"sampler":3,"target":{"node":3,"path":"rotation"}},{"sampler":4,"target":{"node":4,"path":"rotation"}},{"sampler":5,"target":{"node":5,"path":"rotation"}},{"sampler":6,"target":{"node":6,"path":"rotation"}},{"sampler":7,"target":{"node":7,"path":"rotation"}}],"samplers":[{"input":12,"interpolation":"LINEAR","output":13},{"input":14,"interpolation":"LINEAR","output":15},{"input":16,"interpolation":"LINEAR","output":17},{"input":18,"interpolation":"LINEAR","output":19},{"input":20,"interpolation":"LINEAR","output":21},{"input":22,"interpolation":"LINEAR","output":23},{"input":24,"interpolation":"LINEAR","output":25},{"input":26,"interpolation":"LINEAR","output":27}]}]}