{"asset":{"version":"2.0","generator":"babylon.js glTF exporter for maya 2018 v1.2.21","copyright":"2017 (c) BabylonJS"},"scene":0,"scenes":[{"nodes":[0,1,2,3,4],"extensions":{}}],"nodes":[{"mesh":0,"translation":[0.0,1.0,0.0],"rotation":[0.0,0.0,0.0,1.0],"scale":[1.0,1.0,1.0],"name":"Metallic"},{"mesh":1,"translation":[0.0,1.0,0.0],"rotation":[0.0,0.0,0.0,1.0],"scale":[1.0,1.0,1.0],"name":"Dielectric"},{"translation":[-0.6879246,0.0,8.117105],"rotation":[0.0,0.0,0.0,1.0],"scale":[11.4174891,11.4174891,11.4174891],"name":"aiAreaLight1"},{"mesh":2,"translation":[0.0,-1.0,0.0],"rotation":[0.0,0.0,0.0,1.0],"scale":[1.0,1.0,1.0],"name":"Dielectric1"},{"translation":[0.0,0.0,0.0],"rotation":[0.0,0.0,0.0,1.0],"scale":[1.0,1.0,1.0],"name":"Default light"}],"meshes":[{"primitives":[{"attributes":{"POSITION":1,"NORMAL":2,"TEXCOORD_0":3},"indices":0,"mode":4,"material":0}],"name":"Metallic"},{"primitives":[{"attributes":{"POSITION":5,"NORMAL":6,"TEXCOORD_0":7},"indices":4,"mode":4,"material":1}],"name":"Dielectric"},{"primitives":[{"attributes":{"POSITION":9,"NORMAL":10,"TEXCOORD_0":11},"indices":8,"mode":4,"material":2}],"name":"Dielectric1"}],"accessors":[{"bufferView":0,"componentType":5123,"count":25344,"type":"SCALAR","name":"accessorIndices"},{"bufferView":1,"componentType":5126,"count":4598,"max":[10.6470413,1.647041,0.647040963],"min":[-10.6470413,0.352959037,-0.647040963],"type":"VEC3","name":"accessorPositions"},{"bufferView":1,"byteOffset":55176,"componentType":5126,"count":4598,"type":"VEC3","name":"accessorNormals"},{"bufferView":2,"componentType":5126,"count":4598,"type":"VEC2","name":"accessorUVs"},{"bufferView":0,"byteOffset":50688,"componentType":5123,"count":25344,"type":"SCALAR","name":"accessorIndices"},{"bufferView":1,"byteOffset":110352,"componentType":5126,"count":4598,"max":[10.6470413,-0.352959037,0.647040963],"min":[-10.6470413,-1.647041,-0.647040963],"type":"VEC3","name":"accessorPositions"},{"bufferView":1,"byteOffset":165528,"componentType":5126,"count":4598,"type":"VEC3","name":"accessorNormals"},{"bufferView":2,"byteOffset":36784,"componentType":5126,"count":4598,"type":"VEC2","name":"accessorUVs"},{"bufferView":0,"byteOffset":101376,"componentType":5123,"count":25344,"type":"SCALAR","name":"accessorIndices"},{"bufferView":1,"byteOffset":220704,"componentType":5126,"count":4598,"max":[10.6470413,-0.352959037,0.647040963],"min":[-10.6470413,-1.647041,-0.647040963],"type":"VEC3","name":"accessorPositions"},{"bufferView":1,"byteOffset":275880,"componentType":5126,"count":4598,"type":"VEC3","name":"accessorNormals"},{"bufferView":2,"byteOffset":73568,"componentType":5126,"count":4598,"type":"VEC2","name":"accessorUVs"}],"bufferViews":[{"buffer":0,"byteLength":152064,"name":"bufferViewScalar"},{"buffer":0,"byteOffset":152064,"byteLength":331056,"byteStride":12,"name":"bufferViewFloatVec3"},{"buffer":0,"byteOffset":483120,"byteLength":110352,"byteStride":8,"name":"bufferViewFloatVec2"}],"buffers":[{"uri":"ENV_Spheres_3Line.bin","byteLength":593472}],"materials":[{"pbrMetallicRoughness":{"baseColorFactor":[1.0,1.0,1.0,1.0],"metallicFactor":1.0,"roughnessFactor":1.0,"metallicRoughnessTexture":{"index":0,"texCoord":0}},"emissiveFactor":[0.0,0.0,0.0],"alphaMode":"OPAQUE","name":"MetallicSpheresMat"},{"pbrMetallicRoughness":{"baseColorFactor":[1.0,1.0,1.0,1.0],"metallicFactor":1.0,"roughnessFactor":1.0,"metallicRoughnessTexture":{"index":1,"texCoord":0}},"emissiveFactor":[0.0,0.0,0.0],"alphaMode":"OPAQUE","name":"DielectricSpheresMat"},{"pbrMetallicRoughness":{"baseColorFactor":[0.0,0.0,0.0,1.0],"metallicFactor":1.0,"roughnessFactor":1.0,"metallicRoughnessTexture":{"index":2,"texCoord":0}},"emissiveFactor":[0.0,0.0,0.0],"alphaMode":"OPAQUE","name":"DielectricSpheresBlackMat"}],"textures":[{"sampler":0,"source":0,"name":"file1255.jpg"},{"sampler":1,"source":1,"name":"file20.jpg"},{"sampler":2,"source":2,"name":"file30.jpg"}],"images":[{"uri":"file1255.jpg"},{"uri":"file20.jpg"},{"uri":"file30.jpg"}],"samplers":[{"magFilter":9729,"minFilter":9987,"wrapS":10497,"wrapT":10497},{"magFilter":9729,"minFilter":9987,"wrapS":10497,"wrapT":10497},{"magFilter":9729,"minFilter":9987,"wrapS":10497,"wrapT":10497}]}