{
  "accessors": [
    {
      "bufferView": 0,
      "componentType": 5126,
      "count": 1679,
      "type": "VEC2"
    },
    {
      "bufferView": 1,
      "componentType": 5126,
      "count": 1679,
      "type": "VEC3"
    },
    {
      "bufferView": 2,
      "componentType": 5126,
      "count": 1679,
      "type": "VEC4"
    },
    {
      "bufferView": 3,
      "componentType": 5126,
      "count": 1679,
      "type": "VEC3",
      "max": [
        0.100000076,
        0.099999994,
        0.100000024
      ],
      "min": [
        -0.100000039,
        -0.099999994,
        -0.09999999
      ]
    },
    {
      "bufferView": 4,
      "componentType": 5126,
      "count": 1679,
      "type": "VEC3",
      "name": "SquashStretch.BallStretch"
    },
    {
      "bufferView": 5,
      "componentType": 5126,
      "count": 1679,
      "type": "VEC3",
      "max": [
        0.0232546031,
        0.03793724,
        0.0232545435
      ],
      "min": [
        -0.0232546031,
        -0.03793724,
        -0.0232545361
      ],
      "name": "SquashStretch.BallStretch"
    },
    {
      "bufferView": 6,
      "componentType": 5126,
      "count": 1679,
      "type": "VEC3",
      "name": "SquashStretch.BallStretch"
    },
    {
      "bufferView": 7,
      "componentType": 5126,
      "count": 1679,
      "type": "VEC3",
      "name": "SquashStretch.BallSquash"
    },
    {
      "bufferView": 8,
      "componentType": 5126,
      "count": 1679,
      "type": "VEC3",
      "max": [
        0.02618584,
        0.05283046,
        0.0261858255
      ],
      "min": [
        -0.0261858329,
        0.0,
        -0.026185818
      ],
      "name": "SquashStretch.BallSquash"
    },
    {
      "bufferView": 9,
      "componentType": 5126,
      "count": 1679,
      "type": "VEC3",
      "name": "SquashStretch.BallSquash"
    },
    {
      "bufferView": 10,
      "componentType": 5123,
      "count": 9360,
      "type": "SCALAR"
    },
    {
      "bufferView": 11,
      "componentType": 5126,
      "count": 50,
      "type": "SCALAR",
      "max": [
        1.63333309
      ],
      "min": [
        0.0
      ]
    },
    {
      "bufferView": 12,
      "componentType": 5126,
      "count": 100,
      "type": "SCALAR"
    },
    {
      "bufferView": 13,
      "componentType": 5126,
      "count": 50,
      "type": "SCALAR",
      "max": [
        1.63333309
      ],
      "min": [
        0.0
      ]
    },
    {
      "bufferView": 14,
      "componentType": 5126,
      "count": 50,
      "type": "VEC3"
    }
  ],
  "animations": [
    {
      "channels": [
        {
          "sampler": 0,
          "target": {
            "node": 0,
            "path": "weights"
          }
        },
        {
          "sampler": 1,
          "target": {
            "node": 0,
            "path": "translation"
          }
        }
      ],
      "samplers": [
        {
          "input": 11,
          "interpolation": "LINEAR",
          "output": 12
        },
        {
          "input": 13,
          "interpolation": "LINEAR",
          "output": 14
        }
      ],
      "name": "Bounce"
    }
  ],
  "asset": {
    "generator": "glTF Tools for Unity",
    "version": "2.0"
  },
  "bufferViews": [
    {
      "buffer": 0,
      "byteLength": 13432
    },
    {
      "buffer": 0,
      "byteOffset": 13432,
      "byteLength": 20148
    },
    {
      "buffer": 0,
      "byteOffset": 33580,
      "byteLength": 26864
    },
    {
      "buffer": 0,
      "byteOffset": 60444,
      "byteLength": 20148
    },
    {
      "buffer": 0,
      "byteOffset": 80592,
      "byteLength": 20148
    },
    {
      "buffer": 0,
      "byteOffset": 100740,
      "byteLength": 20148
    },
    {
      "buffer": 0,
      "byteOffset": 120888,
      "byteLength": 20148
    },
    {
      "buffer": 0,
      "byteOffset": 141036,
      "byteLength": 20148
    },
    {
      "buffer": 0,
      "byteOffset": 161184,
      "byteLength": 20148
    },
    {
      "buffer": 0,
      "byteOffset": 181332,
      "byteLength": 20148
    },
    {
      "buffer": 0,
      "byteOffset": 201480,
      "byteLength": 18720
    },
    {
      "buffer": 0,
      "byteOffset": 220200,
      "byteLength": 200
    },
    {
      "buffer": 0,
      "byteOffset": 220400,
      "byteLength": 400
    },
    {
      "buffer": 0,
      "byteOffset": 220800,
      "byteLength": 200
    },
    {
      "buffer": 0,
      "byteOffset": 221000,
      "byteLength": 600
    }
  ],
  "buffers": [
    {
      "uri": "BallBounce.bin",
      "byteLength": 221600
    }
  ],
  "images": [
    {
      "uri": "BallBounce_baseColor.png"
    },
    {
      "uri": "BallBounce_roughnessMetallic.png"
    },
    {
      "uri": "BallBounce_normal.png"
    }
  ],
  "meshes": [
    {
      "primitives": [
        {
          "attributes": {
            "TEXCOORD_0": 0,
            "NORMAL": 1,
            "TANGENT": 2,
            "POSITION": 3
          },
          "indices": 10,
          "material": 0,
          "targets": [
            {
              "NORMAL": 4,
              "POSITION": 5,
              "TANGENT": 6
            },
            {
              "NORMAL": 7,
              "POSITION": 8,
              "TANGENT": 9
            }
          ]
        }
      ],
      "weights": [
        0.0,
        0.0
      ],
      "name": "Ball"
    }
  ],
  "materials": [
    {
      "pbrMetallicRoughness": {
        "baseColorTexture": {
          "index": 0
        },
        "metallicRoughnessTexture": {
          "index": 1
        }
      },
      "normalTexture": {
        "scale": 0.7,
        "index": 2
      },
      "name": "BallMat"
    }
  ],
  "nodes": [
    {
      "mesh": 0,
      "translation": [
        0.0,
        0.5,
        0.0
      ],
      "name": "Ball"
    },
    {
      "children": [
        0
      ],
      "rotation": [
        0.0,
        1.0,
        0.0,
        0.0
      ],
      "name": "BallBounce"
    }
  ],
  "scene": 0,
  "scenes": [
    {
      "nodes": [
        1
      ]
    }
  ],
  "textures": [
    {
      "source": 0
    },
    {
      "source": 1
    },
    {
      "source": 2
    }
  ]
}