{
  "accessors": [
    {
      "bufferView": 0,
      "componentType": 5125,
      "count": 2826,
      "type": "SCALAR"
    },
    {
      "bufferView": 1,
      "componentType": 5126,
      "count": 608,
      "max": [
        0.0719416812062263,
        1.0,
        0.475687623023987
      ],
      "min": [
        -0.0719420537352562,
        0.979605555534363,
        0.331803947687149
      ],
      "type": "VEC3"
    },
    {
      "bufferView": 2,
      "componentType": 5126,
      "count": 608,
      "type": "VEC3"
    },
    {
      "bufferView": 3,
      "componentType": 5126,
      "count": 608,
      "type": "VEC2"
    },
    {
      "bufferView": 4,
      "componentType": 5125,
      "count": 15654,
      "type": "SCALAR"
    },
    {
      "bufferView": 5,
      "componentType": 5126,
      "count": 3053,
      "max": [
        0.670513153076172,
        1.0,
        0.670512914657593
      ],
      "min": [
        -0.670513093471527,
        -1.0,
        -0.670512974262238
      ],
      "type": "VEC3"
    },
    {
      "bufferView": 6,
      "componentType": 5126,
      "count": 3053,
      "type": "VEC3"
    },
    {
      "bufferView": 7,
      "componentType": 5126,
      "count": 3053,
      "type": "VEC2"
    },
    {
      "bufferView": 8,
      "componentType": 5125,
      "count": 1572,
      "type": "SCALAR"
    },
    {
      "bufferView": 9,
      "componentType": 5126,
      "count": 328,
      "max": [
        0.0386608801782131,
        0.998952805995941,
        0.468104213476181
      ],
      "min": [
        -0.0386608727276325,
        0.97958779335022,
        0.339399248361588
      ],
      "type": "VEC3"
    },
    {
      "bufferView": 10,
      "componentType": 5126,
      "count": 328,
      "type": "VEC3"
    },
    {
      "bufferView": 11,
      "componentType": 5126,
      "count": 328,
      "type": "VEC2"
    },
    {
      "bufferView": 12,
      "componentType": 5125,
      "count": 1572,
      "type": "SCALAR"
    },
    {
      "bufferView": 13,
      "componentType": 5126,
      "count": 328,
      "max": [
        0.0335910320281982,
        0.985948801040649,
        -0.388958364725113
      ],
      "min": [
        -0.0339278280735016,
        0.972408413887024,
        -0.473507970571518
      ],
      "type": "VEC3"
    },
    {
      "bufferView": 14,
      "componentType": 5126,
      "count": 328,
      "type": "VEC3"
    },
    {
      "bufferView": 15,
      "componentType": 5126,
      "count": 328,
      "type": "VEC2"
    },
    {
      "bufferView": 16,
      "componentType": 5125,
      "count": 2826,
      "type": "SCALAR"
    },
    {
      "bufferView": 17,
      "componentType": 5126,
      "count": 608,
      "max": [
        0.0502494722604752,
        0.98742401599884,
        -0.380909651517868
      ],
      "min": [
        -0.0502498969435692,
        0.973163664340973,
        -0.481408983469009
      ],
      "type": "VEC3"
    },
    {
      "bufferView": 18,
      "componentType": 5126,
      "count": 608,
      "type": "VEC3"
    },
    {
      "bufferView": 19,
      "componentType": 5126,
      "count": 608,
      "type": "VEC2"
    }
  ],
  "asset": {
    "generator": "Substance Painter 2018.2.3",
    "version": "2.0"
  },
  "bufferViews": [
    {
      "buffer": 0,
      "byteLength": 11304,
      "target": 34963
    },
    {
      "buffer": 0,
      "byteLength": 7296,
      "byteOffset": 11304,
      "target": 34962
    },
    {
      "buffer": 0,
      "byteLength": 7296,
      "byteOffset": 18600,
      "target": 34962
    },
    {
      "buffer": 0,
      "byteLength": 4864,
      "byteOffset": 25896,
      "target": 34962
    },
    {
      "buffer": 0,
      "byteLength": 62616,
      "byteOffset": 30760,
      "target": 34963
    },
    {
      "buffer": 0,
      "byteLength": 36636,
      "byteOffset": 93376,
      "target": 34962
    },
    {
      "buffer": 0,
      "byteLength": 36636,
      "byteOffset": 130012,
      "target": 34962
    },
    {
      "buffer": 0,
      "byteLength": 24424,
      "byteOffset": 166648,
      "target": 34962
    },
    {
      "buffer": 0,
      "byteLength": 6288,
      "byteOffset": 191072,
      "target": 34963
    },
    {
      "buffer": 0,
      "byteLength": 3936,
      "byteOffset": 197360,
      "target": 34962
    },
    {
      "buffer": 0,
      "byteLength": 3936,
      "byteOffset": 201296,
      "target": 34962
    },
    {
      "buffer": 0,
      "byteLength": 2624,
      "byteOffset": 205232,
      "target": 34962
    },
    {
      "buffer": 0,
      "byteLength": 6288,
      "byteOffset": 207856,
      "target": 34963
    },
    {
      "buffer": 0,
      "byteLength": 3936,
      "byteOffset": 214144,
      "target": 34962
    },
    {
      "buffer": 0,
      "byteLength": 3936,
      "byteOffset": 218080,
      "target": 34962
    },
    {
      "buffer": 0,
      "byteLength": 2624,
      "byteOffset": 222016,
      "target": 34962
    },
    {
      "buffer": 0,
      "byteLength": 11304,
      "byteOffset": 224640,
      "target": 34963
    },
    {
      "buffer": 0,
      "byteLength": 7296,
      "byteOffset": 235944,
      "target": 34962
    },
    {
      "buffer": 0,
      "byteLength": 7296,
      "byteOffset": 243240,
      "target": 34962
    },
    {
      "buffer": 0,
      "byteLength": 4864,
      "byteOffset": 250536,
      "target": 34962
    }
  ],
  "buffers": [
    {
      "byteLength": 255400,
      "uri": "ExplodingBarrel.bin"
    }
  ],
  "images": [
    {
      "uri": "BarrelMat_baseColor.png"
    },
    {
      "uri": "BarrelMat_occlusionRoughnessMetallic.png"
    },
    {
      "uri": "BarrelMat_normal.png"
    }
  ],
  "materials": [
    {
      "alphaMode": "OPAQUE",
      "name": "BarrelMat",
      "normalTexture": {
        "index": 2
      },
      "occlusionTexture": {
        "index": 1
      },
      "pbrMetallicRoughness": {
        "baseColorTexture": {
          "index": 0
        },
        "metallicRoughnessTexture": {
          "index": 1
        }
      }
    }
  ],
  "meshes": [
    {
      "name": "LargeCap_low",
      "primitives": [
        {
          "attributes": {
            "NORMAL": 2,
            "POSITION": 1,
            "TEXCOORD_0": 3
          },
          "indices": 0,
          "material": 0,
          "mode": 4
        }
      ]
    },
    {
      "name": "Barrel_low",
      "primitives": [
        {
          "attributes": {
            "NORMAL": 6,
            "POSITION": 5,
            "TEXCOORD_0": 7
          },
          "indices": 4,
          "material": 0,
          "mode": 4
        }
      ]
    },
    {
      "name": "LargeClip_low",
      "primitives": [
        {
          "attributes": {
            "NORMAL": 10,
            "POSITION": 9,
            "TEXCOORD_0": 11
          },
          "indices": 8,
          "material": 0,
          "mode": 4
        }
      ]
    },
    {
      "name": "SmallClip_low",
      "primitives": [
        {
          "attributes": {
            "NORMAL": 14,
            "POSITION": 13,
            "TEXCOORD_0": 15
          },
          "indices": 12,
          "material": 0,
          "mode": 4
        }
      ]
    },
    {
      "name": "SmallCap_low",
      "primitives": [
        {
          "attributes": {
            "NORMAL": 18,
            "POSITION": 17,
            "TEXCOORD_0": 19
          },
          "indices": 16,
          "material": 0,
          "mode": 4
        }
      ]
    }
  ],
  "nodes": [
    {
      "children": [
        1,
        3,
        5,
        7,
        9
      ],
      "name": "root",
      "scale": [
        36.0525779724121,
        36.0525779724121,
        36.0525779724121
      ],
      "translation": [
        0.0,
        35.9940376281738,
        1.9073486328125e-06
      ]
    },
    {
      "children": [
        2
      ],
      "name": "LargeCap_low"
    },
    {
      "mesh": 0,
      "name": "LargeCap_low"
    },
    {
      "children": [
        4
      ],
      "name": "Barrel_low"
    },
    {
      "mesh": 1,
      "name": "Barrel_low"
    },
    {
      "children": [
        6
      ],
      "name": "LargeClip_low"
    },
    {
      "mesh": 2,
      "name": "LargeClip_low"
    },
    {
      "children": [
        8
      ],
      "name": "SmallClip_low"
    },
    {
      "mesh": 3,
      "name": "SmallClip_low"
    },
    {
      "children": [
        10
      ],
      "name": "SmallCap_low"
    },
    {
      "mesh": 4,
      "name": "SmallCap_low"
    }
  ],
  "samplers": [
    {
      "magFilter": 9729,
      "minFilter": 9985,
      "wrapS": 10497,
      "wrapT": 10497
    }
  ],
  "scene": 0,
  "scenes": [
    {
      "name": "Scene",
      "nodes": [
        0
      ]
    }
  ],
  "textures": [
    {
      "sampler": 0,
      "source": 0
    },
    {
      "sampler": 0,
      "source": 1
    },
    {
      "sampler": 0,
      "source": 2
    }
  ]
}