{
  "accessors": [
    {
      "bufferView": 0,
      "componentType": 5126,
      "count": 861,
      "type": "VEC2"
    },
    {
      "bufferView": 1,
      "componentType": 5126,
      "count": 861,
      "type": "VEC3"
    },
    {
      "bufferView": 2,
      "componentType": 5126,
      "count": 861,
      "type": "VEC4"
    },
    {
      "bufferView": 3,
      "componentType": 5126,
      "count": 861,
      "type": "VEC3",
      "max": [
        0.125000045,
        0.0250000022,
        0.125000075
      ],
      "min": [
        -0.125,
        -0.0250000115,
        -0.12500003
      ]
    },
    {
      "bufferView": 4,
      "componentType": 5123,
      "count": 4800,
      "type": "SCALAR"
    }
  ],
  "asset": {
    "generator": "glTF Tools for Unity",
    "version": "2.0"
  },
  "buffers": [
    {
      "uri": "PBRtorus.bin",
      "byteLength": 50928
    }
  ],
  "bufferViews": [
    {
      "buffer": 0,
      "byteLength": 6888
    },
    {
      "buffer": 0,
      "byteOffset": 6888,
      "byteLength": 10332
    },
    {
      "buffer": 0,
      "byteOffset": 17220,
      "byteLength": 13776
    },
    {
      "buffer": 0,
      "byteOffset": 30996,
      "byteLength": 10332
    },
    {
      "buffer": 0,
      "byteOffset": 41328,
      "byteLength": 9600
    }
  ],
  "images": [
    {
      "uri": "PBRtorus_image0.png"
    },
    {
      "uri": "PBRtorus_image1.png"
    },
    {
      "uri": "PBRtorus_image2.png"
    }
  ],
  "materials": [
    {
      "name": "M_PBRtorus",
      "pbrMetallicRoughness": {
        "baseColorFactor": [
          0.214041144,
          0.214041144,
          0.214041144,
          1.0
        ],
        "baseColorTexture": {
          "index": 0
        },
        "metallicRoughnessTexture": {
          "index": 1
        }
      },
      "normalTexture": {
        "index": 2
      }
    }
  ],
  "meshes": [
    {
      "primitives": [
        {
          "attributes": {
            "TEXCOORD_0": 0,
            "NORMAL": 1,
            "TANGENT": 2,
            "POSITION": 3
          },
          "indices": 4,
          "material": 0
        }
      ],
      "name": "Torus"
    }
  ],
  "nodes": [
    {
      "mesh": 0,
      "translation": [
        0.0,
        0.026,
        0.0
      ],
      "name": "PBRtorus"
    }
  ],
  "scene": 0,
  "scenes": [
    {
      "nodes": [
        0
      ]
    }
  ],
  "textures": [
    {
      "source": 0
    },
    {
      "source": 1
    },
    {
      "source": 2
    }
  ]
}