{
  "asset": {
    "version": "2.0",
    "generator": "babylon.js glTF exporter for maya 2018 v1.2.6",
    "copyright": "2017 (c) BabylonJS"
  },
  "extensionsUsed": [
    "KHR_lights"
  ],
  "scene": 0,
  "scenes": [
    {
      "nodes": [
        0,
        1
      ],
      "extensions": {
        "KHR_lights": {
          "light": 0
        }
      }
    }
  ],
  "nodes": [
    {
      "mesh": 0,
      "translation": [
        0.0,
        0.0,
        0.0
      ],
      "rotation": [
        0.0,
        0.0,
        0.0,
        1.0
      ],
      "scale": [
        1.0,
        1.0,
        1.0
      ],
      "name": "Metallic"
    },
    {
      "mesh": 1,
      "translation": [
        0.0,
        0.0,
        0.0
      ],
      "rotation": [
        0.0,
        0.0,
        0.0,
        1.0
      ],
      "scale": [
        1.0,
        1.0,
        1.0
      ],
      "name": "Dielectric"
    }
  ],
  "meshes": [
    {
      "primitives": [
        {
          "attributes": {
            "POSITION": 1,
            "NORMAL": 2,
            "TANGENT": 3,
            "TEXCOORD_0": 4
          },
          "indices": 0,
          "mode": 4,
          "material": 0
        }
      ],
      "name": "Metallic"
    },
    {
      "primitives": [
        {
          "attributes": {
            "POSITION": 6,
            "NORMAL": 7,
            "TANGENT": 8,
            "TEXCOORD_0": 9
          },
          "indices": 5,
          "mode": 4,
          "material": 1
        }
      ],
      "name": "Dielectric"
    }
  ],
  "accessors": [
    {
      "bufferView": 0,
      "componentType": 5123,
      "count": 25344,
      "type": "SCALAR",
      "name": "accessorIndices"
    },
    {
      "bufferView": 1,
      "componentType": 5126,
      "count": 4598,
      "max": [
        10.6470413,
        1.647041,
        0.647040963
      ],
      "min": [
        -10.6470413,
        0.352959037,
        -0.647040963
      ],
      "type": "VEC3",
      "name": "accessorPositions"
    },
    {
      "bufferView": 1,
      "byteOffset": 55176,
      "componentType": 5126,
      "count": 4598,
      "type": "VEC3",
      "name": "accessorNormals"
    },
    {
      "bufferView": 2,
      "componentType": 5126,
      "count": 4598,
      "type": "VEC4",
      "name": "accessorTangents"
    },
    {
      "bufferView": 3,
      "componentType": 5126,
      "count": 4598,
      "type": "VEC2",
      "name": "accessorUVs"
    },
    {
      "bufferView": 0,
      "byteOffset": 50688,
      "componentType": 5123,
      "count": 25344,
      "type": "SCALAR",
      "name": "accessorIndices"
    },
    {
      "bufferView": 1,
      "byteOffset": 110352,
      "componentType": 5126,
      "count": 4598,
      "max": [
        10.6470413,
        -0.352959037,
        0.647040963
      ],
      "min": [
        -10.6470413,
        -1.647041,
        -0.647040963
      ],
      "type": "VEC3",
      "name": "accessorPositions"
    },
    {
      "bufferView": 1,
      "byteOffset": 165528,
      "componentType": 5126,
      "count": 4598,
      "type": "VEC3",
      "name": "accessorNormals"
    },
    {
      "bufferView": 2,
      "byteOffset": 73568,
      "componentType": 5126,
      "count": 4598,
      "type": "VEC4",
      "name": "accessorTangents"
    },
    {
      "bufferView": 3,
      "byteOffset": 36784,
      "componentType": 5126,
      "count": 4598,
      "type": "VEC2",
      "name": "accessorUVs"
    }
  ],
  "bufferViews": [
    {
      "buffer": 0,
      "byteLength": 101376,
      "name": "bufferViewScalar",
      "byteOffset": 0
    },
    {
      "buffer": 0,
      "byteOffset": 101376,
      "byteLength": 220704,
      "byteStride": 12,
      "name": "bufferViewFloatVec3"
    },
    {
      "buffer": 0,
      "byteOffset": 322080,
      "byteLength": 147136,
      "byteStride": 16,
      "name": "bufferViewFloatVec4"
    },
    {
      "buffer": 0,
      "byteOffset": 469216,
      "byteLength": 73568,
      "byteStride": 8,
      "name": "bufferViewFloatVec2"
    }
  ],
  "buffers": [
    {
      "byteLength": 542784,
      "uri": "ENV_Spheres.bin"
    }
  ],
  "materials": [
    {
      "pbrMetallicRoughness": {
        "baseColorFactor": [
          1.0,
          1.0,
          1.0,
          1.0
        ],
        "metallicFactor": 1.0,
        "roughnessFactor": 1.0,
        "metallicRoughnessTexture": {
          "index": 0,
          "texCoord": 0
        }
      },
      "emissiveFactor": [
        0.0,
        0.0,
        0.0
      ],
      "alphaMode": "OPAQUE",
      "name": "MetallicSpheresMat"
    },
    {
      "pbrMetallicRoughness": {
        "baseColorFactor": [
          1.0,
          1.0,
          1.0,
          1.0
        ],
        "metallicFactor": 1.0,
        "roughnessFactor": 1.0,
        "metallicRoughnessTexture": {
          "index": 1,
          "texCoord": 0
        }
      },
      "emissiveFactor": [
        0.0,
        0.0,
        0.0
      ],
      "alphaMode": "OPAQUE",
      "name": "DielectricSpheresMat"
    }
  ],
  "textures": [
    {
      "sampler": 0,
      "source": 0,
      "name": "file1.jpg"
    },
    {
      "sampler": 1,
      "source": 1,
      "name": "file2.jpg"
    }
  ],
  "images": [
    {
      "uri": "ENV_Spheres_image0.jpg"
    },
    {
      "uri": "ENV_Spheres_image1.jpg"
    }
  ],
  "samplers": [
    {
      "magFilter": 9729,
      "minFilter": 9987,
      "wrapS": 10497,
      "wrapT": 10497
    },
    {
      "magFilter": 9729,
      "minFilter": 9987,
      "wrapS": 10497,
      "wrapT": 10497
    }
  ],
  "extensions": {
    "KHR_lights": {
      "lights": [
        {
          "color": [
            1.0,
            1.0,
            1.0
          ],
          "intensity": 1.0,
          "type": "ambient"
        }
      ]
    }
  }
}