{"asset":{"version":"2.0","generator":"babylon.js glTF exporter for maya 2018 v1.2.30"},"scene":0,"scenes":[{"nodes":[0,3],"extensions":{}}],"nodes":[{"children":[1,2],"translation":[0.0,4.16333634E-16,2.220446E-16],"rotation":[-0.0871557444,0.0,0.0,0.9961947],"scale":[1.0,1.0,1.0],"name":"fanHead_low"},{"mesh":0,"translation":[0.0,0.208036542,3.9239552],"rotation":[0.0,0.0,0.0,1.0],"scale":[1.0,1.0,1.0],"name":"fanHead_low1"},{"mesh":1,"translation":[5.520615E-11,0.208036542,3.9239552],"rotation":[0.0,0.0,0.0,1.0],"scale":[1.0,1.0,1.0],"name":"fanBlade_low"},{"mesh":2,"translation":[0.0,0.0,0.0],"rotation":[0.0,0.0,0.0,1.0],"scale":[1.0,1.0,1.0],"name":"fanBase_low"}],"meshes":[{"primitives":[{"attributes":{"POSITION":1,"NORMAL":2,"TANGENT":3,"TEXCOORD_0":4},"indices":0,"mode":4,"material":0}],"name":"fanHead_low1"},{"primitives":[{"attributes":{"POSITION":6,"NORMAL":7,"TANGENT":8,"TEXCOORD_0":9},"indices":5,"mode":4,"material":0}],"name":"fanBlade_low"},{"primitives":[{"attributes":{"POSITION":11,"NORMAL":12,"TANGENT":13,"TEXCOORD_0":14},"indices":10,"mode":4,"material":0}],"name":"fanBase_low"}],"accessors":[{"bufferView":0,"componentType":5123,"count":34950,"type":"SCALAR","name":"accessorIndices"},{"bufferView":1,"componentType":5126,"count":9340,"max":[22.0759659,52.6773224,16.9501228],"min":[-22.1872883,8.414068,-16.83083],"type":"VEC3","name":"accessorPositions"},{"bufferView":1,"byteOffset":112080,"componentType":5126,"count":9340,"type":"VEC3","name":"accessorNormals"},{"bufferView":2,"componentType":5126,"count":9340,"type":"VEC4","name":"accessorTangents"},{"bufferView":3,"componentType":5126,"count":9340,"type":"VEC2","name":"accessorUVs"},{"bufferView":0,"byteOffset":69900,"componentType":5123,"count":6612,"type":"SCALAR","name":"accessorIndices"},{"bufferView":1,"byteOffset":224160,"componentType":5126,"count":1873,"max":[20.2205048,50.7525749,10.7051764],"min":[-20.2205029,10.3115664,0.61548686],"type":"VEC3","name":"accessorPositions"},{"bufferView":1,"byteOffset":246636,"componentType":5126,"count":1873,"type":"VEC3","name":"accessorNormals"},{"bufferView":2,"byteOffset":149440,"componentType":5126,"count":1873,"type":"VEC4","name":"accessorTangents"},{"bufferView":3,"byteOffset":74720,"componentType":5126,"count":1873,"type":"VEC2","name":"accessorUVs"},{"bufferView":0,"byteOffset":83124,"componentType":5123,"count":21678,"type":"SCALAR","name":"accessorIndices"},{"bufferView":1,"byteOffset":269112,"componentType":5126,"count":4388,"max":[9.826473,28.9676266,9.772886],"min":[-9.827279,-0.02011255,-16.44451],"type":"VEC3","name":"accessorPositions"},{"bufferView":1,"byteOffset":321768,"componentType":5126,"count":4388,"type":"VEC3","name":"accessorNormals"},{"bufferView":2,"byteOffset":179408,"componentType":5126,"count":4388,"type":"VEC4","name":"accessorTangents"},{"bufferView":3,"byteOffset":89704,"componentType":5126,"count":4388,"type":"VEC2","name":"accessorUVs"},{"bufferView":4,"componentType":5126,"count":2,"max":[6.65],"min":[0.0],"type":"SCALAR","name":"accessorAnimationInput"},{"bufferView":5,"componentType":5126,"count":2,"type":"VEC4","name":"accessorAnimationRotations"},{"bufferView":4,"byteOffset":8,"componentType":5126,"count":2,"max":[6.65],"min":[0.0],"type":"SCALAR","name":"accessorAnimationInput"},{"bufferView":6,"componentType":5126,"count":2,"type":"VEC3","name":"accessorAnimationPositions"},{"bufferView":4,"byteOffset":16,"componentType":5126,"count":400,"max":[6.65],"min":[0.0],"type":"SCALAR","name":"accessorAnimationInput"},{"bufferView":5,"byteOffset":32,"componentType":5126,"count":400,"type":"VEC4","name":"accessorAnimationRotations"},{"bufferView":4,"byteOffset":1616,"componentType":5126,"count":400,"max":[6.65],"min":[0.0],"type":"SCALAR","name":"accessorAnimationInput"},{"bufferView":6,"byteOffset":24,"componentType":5126,"count":400,"type":"VEC3","name":"accessorAnimationPositions"},{"bufferView":4,"byteOffset":3216,"componentType":5126,"count":2,"max":[1.33333337],"min":[0.0],"type":"SCALAR","name":"accessorAnimationInput"},{"bufferView":5,"byteOffset":6432,"componentType":5126,"count":2,"type":"VEC4","name":"accessorAnimationRotations"},{"bufferView":4,"byteOffset":3224,"componentType":5126,"count":2,"max":[1.33333337],"min":[0.0],"type":"SCALAR","name":"accessorAnimationInput"},{"bufferView":6,"byteOffset":4824,"componentType":5126,"count":2,"type":"VEC3","name":"accessorAnimationPositions"},{"bufferView":4,"byteOffset":3232,"componentType":5126,"count":81,"max":[1.33333337],"min":[0.0],"type":"SCALAR","name":"accessorAnimationInput"},{"bufferView":5,"byteOffset":6464,"componentType":5126,"count":81,"type":"VEC4","name":"accessorAnimationRotations"},{"bufferView":4,"byteOffset":3556,"componentType":5126,"count":81,"max":[1.33333337],"min":[0.0],"type":"SCALAR","name":"accessorAnimationInput"},{"bufferView":6,"byteOffset":4848,"componentType":5126,"count":81,"type":"VEC3","name":"accessorAnimationPositions"},{"bufferView":4,"byteOffset":3880,"componentType":5126,"count":2,"max":[0.5],"min":[0.0],"type":"SCALAR","name":"accessorAnimationInput"},{"bufferView":5,"byteOffset":7760,"componentType":5126,"count":2,"type":"VEC4","name":"accessorAnimationRotations"},{"bufferView":4,"byteOffset":3888,"componentType":5126,"count":2,"max":[0.5],"min":[0.0],"type":"SCALAR","name":"accessorAnimationInput"},{"bufferView":6,"byteOffset":5820,"componentType":5126,"count":2,"type":"VEC3","name":"accessorAnimationPositions"},{"bufferView":4,"byteOffset":3896,"componentType":5126,"count":2,"max":[0.5],"min":[0.0],"type":"SCALAR","name":"accessorAnimationInput"},{"bufferView":6,"byteOffset":5844,"componentType":5126,"count":2,"type":"VEC3","name":"accessorAnimationPositions"},{"bufferView":4,"byteOffset":3904,"componentType":5126,"count":2,"max":[6.66666651],"min":[0.0],"type":"SCALAR","name":"accessorAnimationInput"},{"bufferView":5,"byteOffset":7792,"componentType":5126,"count":2,"type":"VEC4","name":"accessorAnimationRotations"},{"bufferView":4,"byteOffset":3912,"componentType":5126,"count":2,"max":[6.66666651],"min":[0.0],"type":"SCALAR","name":"accessorAnimationInput"},{"bufferView":6,"byteOffset":5868,"componentType":5126,"count":2,"type":"VEC3","name":"accessorAnimationPositions"},{"bufferView":4,"byteOffset":3920,"componentType":5126,"count":401,"max":[6.66666651],"min":[0.0],"type":"SCALAR","name":"accessorAnimationInput"},{"bufferView":5,"byteOffset":7824,"componentType":5126,"count":401,"type":"VEC4","name":"accessorAnimationRotations"},{"bufferView":4,"byteOffset":5524,"componentType":5126,"count":401,"max":[6.66666651],"min":[0.0],"type":"SCALAR","name":"accessorAnimationInput"},{"bufferView":6,"byteOffset":5892,"componentType":5126,"count":401,"type":"VEC3","name":"accessorAnimationPositions"}],"bufferViews":[{"buffer":0,"byteLength":126480,"name":"bufferViewScalar"},{"buffer":0,"byteOffset":126480,"byteLength":374424,"byteStride":12,"name":"bufferViewFloatVec3"},{"buffer":0,"byteOffset":500904,"byteLength":249616,"byteStride":16,"name":"bufferViewFloatVec4"},{"buffer":0,"byteOffset":750520,"byteLength":124808,"byteStride":8,"name":"bufferViewFloatVec2"},{"buffer":0,"byteOffset":875328,"byteLength":7128,"name":"bufferViewAnimationFloatScalar"},{"buffer":0,"byteOffset":882456,"byteLength":14240,"name":"bufferViewAnimationFloatVec4"},{"buffer":0,"byteOffset":896696,"byteLength":10704,"name":"bufferViewAnimationFloatVec3"}],"buffers":[{"uri":"vintageFan_animated.bin","byteLength":907400}],"materials":[{"pbrMetallicRoughness":{"baseColorFactor":[1.0,1.0,1.0,1.0],"baseColorTexture":{"index":2,"texCoord":0},"metallicFactor":1.0,"roughnessFactor":1.0,"metallicRoughnessTexture":{"index":1,"texCoord":0}},"normalTexture":{"index":0,"texCoord":0},"occlusionTexture":{"index":1,"texCoord":0},"emissiveFactor":[0.0,0.0,0.0],"alphaMode":"OPAQUE","name":"vintageFanMat"}],"textures":[{"sampler":0,"source":0,"name":"vintageFanMat_normal.png"},{"sampler":1,"source":1,"name":"vintageFanMat_ORM.png"},{"sampler":2,"source":2,"name":"vintageFanMat_baseColor.png"}],"images":[{"uri":"vintageFanMat_normal.png"},{"uri":"vintageFanMat_ORM.png"},{"uri":"vintageFanMat_baseColor.png"}],"samplers":[{"magFilter":9729,"minFilter":9987,"wrapS":10497,"wrapT":10497},{"magFilter":9729,"minFilter":9987,"wrapS":10497,"wrapT":10497},{"magFilter":9729,"minFilter":9987,"wrapS":10497,"wrapT":10497}],"animations":[{"channels":[{"sampler":0,"target":{"node":0,"path":"rotation"}},{"sampler":1,"target":{"node":1,"path":"translation"}},{"sampler":2,"target":{"node":2,"path":"rotation"}},{"sampler":3,"target":{"node":2,"path":"translation"}}],"samplers":[{"input":15,"interpolation":"LINEAR","output":16},{"input":17,"interpolation":"LINEAR","output":18},{"input":19,"interpolation":"LINEAR","output":20},{"input":21,"interpolation":"LINEAR","output":22}],"name":"startFan"},{"channels":[{"sampler":0,"target":{"node":0,"path":"rotation"}},{"sampler":1,"target":{"node":1,"path":"translation"}},{"sampler":2,"target":{"node":2,"path":"rotation"}},{"sampler":3,"target":{"node":2,"path":"translation"}}],"samplers":[{"input":23,"interpolation":"LINEAR","output":24},{"input":25,"interpolation":"LINEAR","output":26},{"input":27,"interpolation":"LINEAR","output":28},{"input":29,"interpolation":"LINEAR","output":30}],"name":"fanRunning"},{"channels":[{"sampler":0,"target":{"node":0,"path":"rotation"}},{"sampler":1,"target":{"node":1,"path":"translation"}},{"sampler":2,"target":{"node":2,"path":"translation"}}],"samplers":[{"input":31,"interpolation":"LINEAR","output":32},{"input":33,"interpolation":"LINEAR","output":34},{"input":35,"interpolation":"LINEAR","output":36}],"name":"off"},{"channels":[{"sampler":0,"target":{"node":0,"path":"rotation"}},{"sampler":1,"target":{"node":1,"path":"translation"}},{"sampler":2,"target":{"node":2,"path":"rotation"}},{"sampler":3,"target":{"node":2,"path":"translation"}}],"samplers":[{"input":37,"interpolation":"LINEAR","output":38},{"input":39,"interpolation":"LINEAR","output":40},{"input":41,"interpolation":"LINEAR","output":42},{"input":43,"interpolation":"LINEAR","output":44}],"name":"fanStop"}]}